<svg width="573" height="48" viewBox="0 0 573 48" fill="none" xmlns="http://www.w3.org/2000/svg">
<path d="M23.824 15.4514L7.84 21.3074L23.824 27.1154V33.1154L0.976 24.4274V18.1874L23.824 9.49942V15.4514ZM61.5344 4.50742V38.1074H53.7584V24.3314H38.4944V38.1074H30.7184V4.50742H38.4944V17.7554H53.7584V4.50742H61.5344ZM94.252 25.2914C94.252 25.3874 94.204 26.0594 94.108 27.3074H74.572C74.924 28.9074 75.756 30.1714 77.068 31.0994C78.38 32.0274 80.012 32.4914 81.964 32.4914C83.308 32.4914 84.492 32.2994 85.516 31.9154C86.572 31.4994 87.548 30.8594 88.444 29.9954L92.428 34.3154C89.996 37.0994 86.444 38.4914 81.772 38.4914C78.86 38.4914 76.284 37.9314 74.044 36.8114C71.804 35.6594 70.076 34.0754 68.86 32.0594C67.644 30.0434 67.036 27.7554 67.036 25.1954C67.036 22.6674 67.628 20.3954 68.812 18.3794C70.028 16.3314 71.676 14.7474 73.756 13.6274C75.868 12.4754 78.22 11.8994 80.812 11.8994C83.34 11.8994 85.628 12.4434 87.676 13.5314C89.724 14.6194 91.324 16.1874 92.476 18.2354C93.66 20.2514 94.252 22.6034 94.252 25.2914ZM80.86 17.5634C79.164 17.5634 77.74 18.0434 76.588 19.0034C75.436 19.9634 74.732 21.2754 74.476 22.9394H87.196C86.94 21.3074 86.236 20.0114 85.084 19.0514C83.932 18.0594 82.524 17.5634 80.86 17.5634ZM106.389 15.6914C107.285 14.4434 108.485 13.4994 109.989 12.8594C111.525 12.2194 113.285 11.8994 115.269 11.8994V18.8114C114.437 18.7474 113.877 18.7154 113.589 18.7154C111.445 18.7154 109.765 19.3234 108.549 20.5394C107.333 21.7234 106.725 23.5154 106.725 25.9154V38.1074H99.2373V12.2834H106.389V15.6914ZM144.783 25.2914C144.783 25.3874 144.735 26.0594 144.639 27.3074H125.103C125.455 28.9074 126.287 30.1714 127.599 31.0994C128.911 32.0274 130.543 32.4914 132.495 32.4914C133.839 32.4914 135.023 32.2994 136.047 31.9154C137.103 31.4994 138.079 30.8594 138.975 29.9954L142.959 34.3154C140.527 37.0994 136.975 38.4914 132.303 38.4914C129.391 38.4914 126.815 37.9314 124.575 36.8114C122.335 35.6594 120.607 34.0754 119.391 32.0594C118.175 30.0434 117.567 27.7554 117.567 25.1954C117.567 22.6674 118.159 20.3954 119.343 18.3794C120.559 16.3314 122.207 14.7474 124.287 13.6274C126.399 12.4754 128.751 11.8994 131.343 11.8994C133.871 11.8994 136.159 12.4434 138.207 13.5314C140.255 14.6194 141.855 16.1874 143.007 18.2354C144.191 20.2514 144.783 22.6034 144.783 25.2914ZM131.391 17.5634C129.695 17.5634 128.271 18.0434 127.119 19.0034C125.967 19.9634 125.263 21.2754 125.007 22.9394H137.727C137.471 21.3074 136.767 20.0114 135.615 19.0514C134.463 18.0594 133.055 17.5634 131.391 17.5634ZM163.362 12.2834H170.85V38.1074H163.362V12.2834ZM167.106 8.68342C165.73 8.68342 164.61 8.28342 163.746 7.48342C162.882 6.68342 162.45 5.69142 162.45 4.50742C162.45 3.32342 162.882 2.33142 163.746 1.53142C164.61 0.73142 165.73 0.331419 167.106 0.331419C168.482 0.331419 169.602 0.71542 170.466 1.48342C171.33 2.25142 171.762 3.21142 171.762 4.36342C171.762 5.61142 171.33 6.65142 170.466 7.48342C169.602 8.28342 168.482 8.68342 167.106 8.68342ZM186.488 38.4914C184.344 38.4914 182.248 38.2354 180.2 37.7234C178.152 37.1794 176.52 36.5074 175.304 35.7074L177.8 30.3314C178.952 31.0674 180.344 31.6754 181.976 32.1554C183.608 32.6034 185.208 32.8274 186.776 32.8274C189.944 32.8274 191.528 32.0434 191.528 30.4754C191.528 29.7394 191.096 29.2114 190.232 28.8914C189.368 28.5714 188.04 28.2994 186.248 28.0754C184.136 27.7554 182.392 27.3874 181.016 26.9714C179.64 26.5554 178.44 25.8194 177.416 24.7634C176.424 23.7074 175.928 22.2034 175.928 20.2514C175.928 18.6194 176.392 17.1794 177.32 15.9314C178.28 14.6514 179.656 13.6594 181.448 12.9554C183.272 12.2514 185.416 11.8994 187.88 11.8994C189.704 11.8994 191.512 12.1074 193.304 12.5234C195.128 12.9074 196.632 13.4514 197.816 14.1554L195.32 19.4834C193.048 18.2034 190.568 17.5634 187.88 17.5634C186.28 17.5634 185.08 17.7874 184.28 18.2354C183.48 18.6834 183.08 19.2594 183.08 19.9634C183.08 20.7634 183.512 21.3234 184.376 21.6434C185.24 21.9634 186.616 22.2674 188.504 22.5554C190.616 22.9074 192.344 23.2914 193.688 23.7074C195.032 24.0914 196.2 24.8114 197.192 25.8674C198.184 26.9234 198.68 28.3954 198.68 30.2834C198.68 31.8834 198.2 33.3074 197.24 34.5554C196.28 35.8034 194.872 36.7794 193.016 37.4834C191.192 38.1554 189.016 38.4914 186.488 38.4914ZM258.366 12.2834L249.006 38.1074H241.806L235.998 22.0754L229.998 38.1074H222.798L213.486 12.2834H220.542L226.638 29.7554L232.974 12.2834H239.31L245.454 29.7554L251.742 12.2834H258.366ZM277.543 11.8994C280.743 11.8994 283.319 12.8594 285.271 14.7794C287.255 16.6994 288.247 19.5474 288.247 23.3234V38.1074H280.759V24.4754C280.759 22.4274 280.311 20.9074 279.415 19.9154C278.519 18.8914 277.223 18.3794 275.527 18.3794C273.639 18.3794 272.135 18.9714 271.015 20.1554C269.895 21.3074 269.335 23.0354 269.335 25.3394V38.1074H261.847V2.49142H269.335V14.9714C270.327 13.9794 271.527 13.2274 272.935 12.7154C274.343 12.1714 275.879 11.8994 277.543 11.8994ZM305.45 11.8994C309.45 11.8994 312.522 12.8594 314.666 14.7794C316.81 16.6674 317.882 19.5314 317.882 23.3714V38.1074H310.874V34.8914C309.466 37.2914 306.842 38.4914 303.002 38.4914C301.018 38.4914 299.29 38.1554 297.818 37.4834C296.378 36.8114 295.274 35.8834 294.506 34.6994C293.738 33.5154 293.354 32.1714 293.354 30.6674C293.354 28.2674 294.25 26.3794 296.042 25.0034C297.866 23.6274 300.666 22.9394 304.442 22.9394H310.394C310.394 21.3074 309.898 20.0594 308.906 19.1954C307.914 18.2994 306.426 17.8514 304.442 17.8514C303.066 17.8514 301.706 18.0754 300.362 18.5234C299.05 18.9394 297.93 19.5154 297.002 20.2514L294.314 15.0194C295.722 14.0274 297.402 13.2594 299.354 12.7154C301.338 12.1714 303.37 11.8994 305.45 11.8994ZM304.874 33.4514C306.154 33.4514 307.29 33.1634 308.282 32.5874C309.274 31.9794 309.978 31.0994 310.394 29.9474V27.3074H305.258C302.186 27.3074 300.65 28.3154 300.65 30.3314C300.65 31.2914 301.018 32.0594 301.754 32.6354C302.522 33.1794 303.562 33.4514 304.874 33.4514ZM341.315 36.8594C340.579 37.4034 339.667 37.8194 338.579 38.1074C337.523 38.3634 336.403 38.4914 335.219 38.4914C332.147 38.4914 329.763 37.7074 328.067 36.1394C326.403 34.5714 325.571 32.2674 325.571 29.2274V18.6194H321.587V12.8594H325.571V6.57142H333.059V12.8594H339.491V18.6194H333.059V29.1314C333.059 30.2194 333.331 31.0674 333.875 31.6754C334.451 32.2514 335.251 32.5394 336.275 32.5394C337.459 32.5394 338.467 32.2194 339.299 31.5794L341.315 36.8594ZM384.744 12.2834L373.08 39.6914C371.896 42.6674 370.424 44.7634 368.664 45.9794C366.936 47.1954 364.84 47.8034 362.376 47.8034C361.032 47.8034 359.704 47.5954 358.392 47.1794C357.08 46.7634 356.008 46.1874 355.176 45.4514L357.912 40.1234C358.488 40.6354 359.144 41.0354 359.88 41.3234C360.648 41.6114 361.4 41.7554 362.136 41.7554C363.16 41.7554 363.992 41.4994 364.632 40.9874C365.272 40.5074 365.848 39.6914 366.36 38.5394L366.456 38.2994L355.272 12.2834H363L370.248 29.8034L377.544 12.2834H384.744ZM399.385 38.4914C396.665 38.4914 394.217 37.9314 392.041 36.8114C389.897 35.6594 388.217 34.0754 387.001 32.0594C385.785 30.0434 385.177 27.7554 385.177 25.1954C385.177 22.6354 385.785 20.3474 387.001 18.3314C388.217 16.3154 389.897 14.7474 392.041 13.6274C394.217 12.4754 396.665 11.8994 399.385 11.8994C402.105 11.8994 404.537 12.4754 406.681 13.6274C408.825 14.7474 410.505 16.3154 411.721 18.3314C412.937 20.3474 413.545 22.6354 413.545 25.1954C413.545 27.7554 412.937 30.0434 411.721 32.0594C410.505 34.0754 408.825 35.6594 406.681 36.8114C404.537 37.9314 402.105 38.4914 399.385 38.4914ZM399.385 32.3474C401.305 32.3474 402.873 31.7074 404.089 30.4274C405.337 29.1154 405.961 27.3714 405.961 25.1954C405.961 23.0194 405.337 21.2914 404.089 20.0114C402.873 18.6994 401.305 18.0434 399.385 18.0434C397.465 18.0434 395.881 18.6994 394.633 20.0114C393.385 21.2914 392.761 23.0194 392.761 25.1954C392.761 27.3714 393.385 29.1154 394.633 30.4274C395.881 31.7074 397.465 32.3474 399.385 32.3474ZM444.566 12.2834V38.1074H437.462V35.0354C436.47 36.1554 435.286 37.0194 433.91 37.6274C432.534 38.2034 431.046 38.4914 429.446 38.4914C426.054 38.4914 423.366 37.5154 421.382 35.5634C419.398 33.6114 418.406 30.7154 418.406 26.8754V12.2834H425.894V25.7714C425.894 29.9314 427.638 32.0114 431.126 32.0114C432.918 32.0114 434.358 31.4354 435.446 30.2834C436.534 29.0994 437.078 27.3554 437.078 25.0514V12.2834H444.566ZM491.737 12.2834V33.7874C491.737 38.5234 490.505 42.0434 488.041 44.3474C485.577 46.6514 481.977 47.8034 477.241 47.8034C474.745 47.8034 472.377 47.4994 470.137 46.8914C467.897 46.2834 466.041 45.4034 464.569 44.2514L467.545 38.8754C468.633 39.7714 470.009 40.4754 471.673 40.9874C473.337 41.5314 475.001 41.8034 476.665 41.8034C479.257 41.8034 481.161 41.2114 482.377 40.0274C483.625 38.8754 484.249 37.1154 484.249 34.7474V33.6434C482.297 35.7874 479.577 36.8594 476.089 36.8594C473.721 36.8594 471.545 36.3474 469.561 35.3234C467.609 34.2674 466.057 32.7954 464.905 30.9074C463.753 29.0194 463.177 26.8434 463.177 24.3794C463.177 21.9154 463.753 19.7394 464.905 17.8514C466.057 15.9634 467.609 14.5074 469.561 13.4834C471.545 12.4274 473.721 11.8994 476.089 11.8994C479.833 11.8994 482.681 13.1314 484.633 15.5954V12.2834H491.737ZM477.577 30.7154C479.561 30.7154 481.177 30.1394 482.425 28.9874C483.705 27.8034 484.345 26.2674 484.345 24.3794C484.345 22.4914 483.705 20.9714 482.425 19.8194C481.177 18.6354 479.561 18.0434 477.577 18.0434C475.593 18.0434 473.961 18.6354 472.681 19.8194C471.401 20.9714 470.761 22.4914 470.761 24.3794C470.761 26.2674 471.401 27.8034 472.681 28.9874C473.961 30.1394 475.593 30.7154 477.577 30.7154ZM524.002 25.2914C524.002 25.3874 523.954 26.0594 523.858 27.3074H504.322C504.674 28.9074 505.506 30.1714 506.818 31.0994C508.13 32.0274 509.762 32.4914 511.714 32.4914C513.058 32.4914 514.242 32.2994 515.266 31.9154C516.322 31.4994 517.298 30.8594 518.194 29.9954L522.178 34.3154C519.746 37.0994 516.194 38.4914 511.522 38.4914C508.61 38.4914 506.034 37.9314 503.794 36.8114C501.554 35.6594 499.826 34.0754 498.61 32.0594C497.394 30.0434 496.786 27.7554 496.786 25.1954C496.786 22.6674 497.378 20.3954 498.562 18.3794C499.778 16.3314 501.426 14.7474 503.506 13.6274C505.618 12.4754 507.97 11.8994 510.562 11.8994C513.09 11.8994 515.378 12.4434 517.426 13.5314C519.474 14.6194 521.074 16.1874 522.226 18.2354C523.41 20.2514 524.002 22.6034 524.002 25.2914ZM510.61 17.5634C508.914 17.5634 507.49 18.0434 506.338 19.0034C505.186 19.9634 504.482 21.2754 504.226 22.9394H516.946C516.69 21.3074 515.986 20.0114 514.834 19.0514C513.682 18.0594 512.274 17.5634 510.61 17.5634ZM545.643 36.8594C544.907 37.4034 543.995 37.8194 542.907 38.1074C541.851 38.3634 540.731 38.4914 539.547 38.4914C536.475 38.4914 534.091 37.7074 532.395 36.1394C530.731 34.5714 529.899 32.2674 529.899 29.2274V18.6194H525.915V12.8594H529.899V6.57142H537.387V12.8594H543.819V18.6194H537.387V29.1314C537.387 30.2194 537.659 31.0674 538.203 31.6754C538.779 32.2514 539.579 32.5394 540.603 32.5394C541.787 32.5394 542.795 32.2194 543.627 31.5794L545.643 36.8594ZM572.215 18.1874V24.4274L549.367 33.1154V27.1154L565.351 21.3074L549.367 15.4514V9.49942L572.215 18.1874Z" fill="#8D81AC"/>
</svg>
