<svg width="20" height="21" viewBox="0 0 20 21" fill="none" xmlns="http://www.w3.org/2000/svg">
<path d="M0 10.2303C0 4.59751 4.47656 0.0323486 10 0.0323486C15.5234 0.0323486 20 4.59751 20 10.2303C20 15.863 15.5234 20.4282 10 20.4282C4.47656 20.4282 0 15.863 0 10.2303ZM6.83594 8.32214L8.67578 10.1944L6.83594 12.1025C6.47266 12.477 6.47266 13.0825 6.83594 13.4211C7.20312 13.8274 7.79688 13.8274 8.12891 13.4211L9.96484 11.5807L11.8359 13.4211C12.2031 13.8274 12.7969 13.8274 13.1289 13.4211C13.5273 13.0825 13.5273 12.477 13.1289 12.1025L11.3242 10.1944L13.1289 8.32214C13.5273 7.98354 13.5273 7.37804 13.1289 7.00358C12.7969 6.63311 12.2031 6.63311 11.8359 7.00358L9.96484 8.87984L8.12891 7.00358C7.79688 6.63311 7.20312 6.63311 6.83594 7.00358C6.47266 7.37804 6.47266 7.98354 6.83594 8.32214Z" fill="#E74A3B"/>
</svg>
