<svg width="20" height="22" viewBox="0 0 20 22" fill="none" xmlns="http://www.w3.org/2000/svg">
<path id="Vector" d="M0 11.001C0 5.36826 4.47656 0.803101 10 0.803101C15.5234 0.803101 20 5.36826 20 11.001C20 16.6338 15.5234 21.1989 10 21.1989C4.47656 21.1989 0 16.6338 0 11.001ZM14.5234 9.24028C14.9492 8.80608 14.9492 8.097 14.5234 7.66279C14.0977 7.22858 13.4023 7.22858 12.9766 7.66279L8.75 11.973L7.02344 10.2123C6.59766 9.77806 5.90234 9.77806 5.47656 10.2123C5.05078 10.6465 5.05078 11.3556 5.47656 11.7898L7.97656 14.3392C8.40234 14.7734 9.09766 14.7734 9.52344 14.3392L14.5234 9.24028Z" fill="#3CBC81"/>
</svg>
