<svg width="20" height="21" viewBox="0 0 20 21" fill="none" xmlns="http://www.w3.org/2000/svg">
<path id="Warning-logo" d="M10 0.301025C4.47656 0.301025 0 4.86619 0 10.4989C0 16.1317 4.47656 20.6969 10 20.6969C15.5234 20.6969 20 16.1317 20 10.4989C20 4.86619 15.5234 0.301025 10 0.301025ZM9.0625 6.35604C9.0625 5.83021 9.48438 5.39998 10 5.39998C10.5156 5.39998 10.9375 5.82822 10.9375 6.35604V11.455C10.9375 11.9828 10.5176 12.4111 10 12.4111C9.48242 12.4111 9.0625 11.9848 9.0625 11.455V6.35604ZM10 16.2353C9.32187 16.2353 8.77188 15.6744 8.77188 14.9828C8.77188 14.2913 9.32148 13.7304 10 13.7304C10.6785 13.7304 11.2281 14.2913 11.2281 14.9828C11.2266 15.6736 10.6797 16.2353 10 16.2353Z" fill="#F6C23E"/>
</svg>
